<svg width="18" height="18" viewBox="0 0 18 18" fill="none" xmlns="http://www.w3.org/2000/svg">
<path d="M8.99955 15.0795L4.6369 17.8312C4.44417 17.9596 4.24268 18.0147 4.03243 17.9963C3.82219 17.978 3.63822 17.9046 3.48053 17.7762C3.32285 17.6478 3.2002 17.4874 3.1126 17.2952C3.02499 17.1029 3.00747 16.8872 3.06003 16.648L4.2164 11.4472L0.353087 7.9525C0.17788 7.7874 0.0685506 7.59918 0.0250992 7.38785C-0.0183521 7.17651 -0.00538684 6.97032 0.0639951 6.76926C0.133377 6.5682 0.238501 6.40309 0.379368 6.27394C0.520234 6.1448 0.712962 6.06225 0.957551 6.02629L6.05607 5.5585L8.02715 0.660415C8.11476 0.440277 8.25072 0.275173 8.43504 0.165104C8.61935 0.0550344 8.80753 0 8.99955 0C9.19158 0 9.37975 0.0550344 9.56407 0.165104C9.74839 0.275173 9.88435 0.440277 9.97195 0.660415L11.943 5.5585L17.0416 6.02629C17.2868 6.06298 17.4796 6.14553 17.6197 6.27394C17.7599 6.40236 17.865 6.56746 17.9351 6.76926C18.0052 6.97105 18.0185 7.17761 17.9751 7.38895C17.9316 7.60028 17.8219 7.78813 17.646 7.9525L13.7827 11.4472L14.9391 16.648C14.9916 16.8865 14.9741 17.1022 14.8865 17.2952C14.7989 17.4882 14.6763 17.6485 14.5186 17.7762C14.3609 17.9039 14.1769 17.9772 13.9667 17.9963C13.7564 18.0154 13.5549 17.9604 13.3622 17.8312L8.99955 15.0795Z" fill="#006A71"/>
</svg>
