<svg width="18" height="18" viewBox="0 0 18 18" fill="none" xmlns="http://www.w3.org/2000/svg">
<path d="M9 0.5C9.06854 0.500061 9.14209 0.514442 9.22363 0.550781L9.30762 0.594727C9.36775 0.630653 9.42118 0.681081 9.46582 0.758789L9.50781 0.845703V0.84668L11.4795 5.74512L11.5928 6.02832L11.8975 6.05664L16.9785 6.52246C17.1045 6.54246 17.1851 6.57617 17.2373 6.60938L17.2822 6.64258C17.336 6.69186 17.3843 6.75588 17.4248 6.84082L17.4629 6.93359C17.4929 7.02023 17.5047 7.10642 17.498 7.19629L17.4854 7.28809C17.4652 7.3863 17.414 7.48475 17.3047 7.58691L13.4473 11.0762L13.2314 11.2715L13.2949 11.5557L14.4512 16.7568C14.4838 16.9058 14.4679 17.0091 14.4316 17.0889C14.3889 17.1829 14.3353 17.2607 14.2715 17.3262L14.2041 17.3877C14.1461 17.4347 14.0813 17.4674 14.0039 17.4854L13.9219 17.498C13.8583 17.5038 13.7922 17.4952 13.7178 17.46L13.6406 17.416L13.6289 17.4082L9.2666 14.6562L9 14.4883L8.73242 14.6562L4.37012 17.4082L4.35938 17.415C4.25152 17.4869 4.162 17.5055 4.07617 17.498C3.99035 17.4906 3.91906 17.468 3.85645 17.4307L3.7959 17.3887C3.72429 17.3303 3.66411 17.2605 3.61426 17.1768L3.56738 17.0879C3.53158 17.0093 3.51566 16.9058 3.54883 16.7549L3.54785 16.7539L4.7041 11.5557L4.76758 11.2715L4.55176 11.0762L0.694336 7.58691C0.613221 7.51008 0.564088 7.43545 0.536133 7.36133L0.514648 7.28711C0.49541 7.19349 0.494947 7.10529 0.512695 7.01855L0.537109 6.93262C0.571196 6.83384 0.614518 6.75742 0.665039 6.69727L0.716797 6.64258C0.763897 6.5994 0.851758 6.54865 1.01855 6.52246L6.10156 6.05664L6.40625 6.02832L6.51953 5.74512L8.49121 0.84668L8.49219 0.845703C8.53075 0.748802 8.57841 0.682758 8.63379 0.635742L8.69141 0.594727C8.8076 0.525339 8.90857 0.5 9 0.5Z" stroke="black"/>
</svg>
